<svg width="14" height="19" viewBox="0 0 14 19" fill="none" xmlns="http://www.w3.org/2000/svg">
<path d="M6.46387 18.3984C6.78027 18.8906 7.51855 18.8906 7.83496 18.3984C12.9678 11.0156 13.917 10.2422 13.917 7.5C13.917 3.77344 10.8936 0.75 7.16699 0.75C3.40527 0.75 0.416992 3.77344 0.416992 7.5C0.416992 10.2422 1.33105 11.0156 6.46387 18.3984ZM7.16699 10.3125C5.58496 10.3125 4.35449 9.08203 4.35449 7.5C4.35449 5.95312 5.58496 4.6875 7.16699 4.6875C8.71387 4.6875 9.97949 5.95312 9.97949 7.5C9.97949 9.08203 8.71387 10.3125 7.16699 10.3125Z" fill="#FFB30E"/>
</svg>
