<svg width="17" height="19" viewBox="0 0 17 19" fill="none" xmlns="http://www.w3.org/2000/svg">
<path d="M8.83301 9.25C11.2939 9.25 13.333 7.24609 13.333 4.75C13.333 2.28906 11.2939 0.25 8.83301 0.25C6.33691 0.25 4.33301 2.28906 4.33301 4.75C4.33301 7.24609 6.33691 9.25 8.83301 9.25ZM11.9619 10.375H11.3643C10.5908 10.7617 9.74707 10.9375 8.83301 10.9375C7.91895 10.9375 7.04004 10.7617 6.2666 10.375H5.66895C3.06738 10.375 0.958008 12.5195 0.958008 15.1211V16.5625C0.958008 17.5117 1.69629 18.25 2.64551 18.25H15.0205C15.9346 18.25 16.708 17.5117 16.708 16.5625V15.1211C16.708 12.5195 14.5635 10.375 11.9619 10.375Z" fill="url(#paint0_linear_401_1279)"/>
<defs>
<linearGradient id="paint0_linear_401_1279" x1="-6.19524" y1="-22.35" x2="24.7364" y2="-20.9848" gradientUnits="userSpaceOnUse">
<stop stop-color="#FFB800"/>
<stop offset="1" stop-color="#FF8A00"/>
</linearGradient>
</defs>
</svg>
